<svg xmlns="http://www.w3.org/2000/svg" width="297" height="66" fill="none">
  <path fill="#E5E9F0" d="M18.984 39.703a12.471 12.471 0 0 1-.422-1.031c-.187-.5-.39-1.031-.609-1.594a41.589 41.589 0 0 0-.656-1.594c-.188-.5-.328-.843-.422-1.03l-.188-.376a.42.42 0 0 0-.234-.281 54.84 54.84 0 0 1-2.297 2.062 20.526 20.526 0 0 1-2.625 1.97 16.183 16.183 0 0 1-2.86 1.405c-1 .344-2 .516-3 .516-1.093 0-1.952-.375-2.577-1.125-.625-.781-1.11-1.703-1.453-2.766a15.31 15.31 0 0 1-.657-3.328 34.596 34.596 0 0 1-.14-2.765c0-1.438.234-2.735.703-3.891.469-1.188 1.125-2.188 1.969-3a8.764 8.764 0 0 1 3.093-1.922c1.188-.437 2.516-.656 3.985-.656 1.031 0 1.937.25 2.719.75a6.252 6.252 0 0 1 1.968 1.875c.563.75 1.016 1.578 1.36 2.484.375.907.687 1.782.937 2.625.281-.156.61-.515.985-1.078.406-.594.812-1.234 1.218-1.922A51.25 51.25 0 0 0 21 22.921a41.48 41.48 0 0 0 .938-1.733c.093-.157.296-.547.609-1.172.344-.657.703-1.36 1.078-2.11.406-.75.766-1.453 1.078-2.11.344-.655.563-1.062.656-1.218.032-.062.11-.172.235-.328.125-.188.203-.313.234-.375-.031 0-.047-.016-.047-.047v-.234c-1.437 0-2.828-.11-4.172-.328-1.312-.22-2.468-.625-3.468-1.22a7.002 7.002 0 0 1-2.438-2.437c-.594-1.03-.89-2.39-.89-4.078v-.703c.03-.375.046-.625.046-.75a1.42 1.42 0 0 1 .516-.75 1.8 1.8 0 0 1 .844-.422c.281-.062.484.094.61.469.155.375.28.875.374 1.5.125.625.266 1.297.422 2.016a7.5 7.5 0 0 0 .89 2.062 6.5 6.5 0 0 0 1.688 1.64c.719.47 1.672.735 2.86.798.062 0 .265.015.609.046h2.484a5.82 5.82 0 0 0 .844-.14c.281-.094.484-.219.61-.375.187-.219.5-.594.937-1.125.469-.563.937-1.14 1.406-1.735.469-.593.922-1.156 1.36-1.687.437-.563.75-.953.937-1.172a22.842 22.842 0 0 1 1.781-1.594c.657-.53 1.344-1 2.063-1.406a11.982 11.982 0 0 1 2.25-.984 7.798 7.798 0 0 1 2.39-.375c.563 0 1.032.11 1.407.328.406.219.718.516.937.89.219.344.36.75.422 1.22.094.437.14.89.14 1.359 0 .906-.234 1.703-.703 2.39a6.848 6.848 0 0 1-1.734 1.828c-.719.532-1.5.985-2.344 1.36a22.87 22.87 0 0 1-2.343.937c-.25.094-.703.235-1.36.422-.656.188-1.375.406-2.156.656-.75.22-1.469.422-2.156.61-.657.187-1.125.297-1.407.328-.218.219-.468.484-.75.797-.25.312-.437.594-.562.844l-5.766 10.546c-.03 0-.078.032-.14.094l-.094.094c0 .062-.047.187-.14.375a4.693 4.693 0 0 0-.282.562l-.281.563c-.094.187-.14.297-.14.328a20.26 20.26 0 0 0-.516.75c-.22.344-.47.719-.75 1.125a92.29 92.29 0 0 0-.797 1.078 13.02 13.02 0 0 1-.469.703v.235c.219.812.406 1.515.563 2.109.187.563.359 1.11.515 1.64a30.915 30.915 0 0 0 1.641 3.798c.125.218.297.421.515.609l.657.562c.25.188.453.391.609.61.188.187.281.39.281.61 0 .562-.281.843-.843.843a3.498 3.498 0 0 1-2.157-.703 6.412 6.412 0 0 1-1.547-1.64ZM3.187 29.297c0 .375.032 1 .094 1.875.063.844.188 1.719.375 2.625.219.875.531 1.656.938 2.344.437.687 1.015 1.03 1.734 1.03.844 0 1.594-.187 2.25-.562a22.86 22.86 0 0 1 2.156-1.03l4.829-4.548v-.187c0-.563-.141-1.297-.422-2.203a12.91 12.91 0 0 0-1.079-2.672c-.468-.875-1.015-1.61-1.64-2.203-.625-.625-1.297-.938-2.016-.938-1.031 0-2 .125-2.906.375-.875.25-1.625.64-2.25 1.172-.625.531-1.125 1.203-1.5 2.016-.375.812-.563 1.78-.563 2.906ZM40.313 3.375c-.75 0-1.5.156-2.25.469a10.58 10.58 0 0 0-2.157 1.219 16.16 16.16 0 0 0-1.922 1.64 23.894 23.894 0 0 0-1.547 1.688 5.469 5.469 0 0 0-.468.562c-.157.25-.328.485-.516.703a6.59 6.59 0 0 0-.422.563l-.187.234v.235h.187c.032 0 .25-.063.657-.188.406-.125.875-.266 1.406-.422a34.75 34.75 0 0 1 1.687-.515c.563-.188 1-.344 1.313-.47.468-.155 1-.359 1.593-.609.626-.28 1.204-.609 1.735-.984a6.146 6.146 0 0 0 1.406-1.266c.375-.468.563-1 .563-1.593 0-.5-.078-.829-.235-.985-.125-.187-.406-.281-.843-.281Zm-6.891 28.781c.031-.156.125-.437.281-.843.156-.407.313-.844.469-1.313.187-.469.36-.906.516-1.313.156-.406.265-.687.328-.843.187-.5.359-.828.515-.985.188-.156.516-.234.985-.234.5 0 .828.172.984.516.156.343.234.75.234 1.218 0 .813-.125 1.563-.375 2.25a32.41 32.41 0 0 1-.75 2.016 24.216 24.216 0 0 0-.797 2.156c-.218.75-.328 1.625-.328 2.625v.563c0 .218.016.453.047.703.032.219.094.422.188.61.093.156.218.234.375.234.812 0 1.625-.157 2.437-.47a21.884 21.884 0 0 0 2.438-1.171 24.256 24.256 0 0 0 2.297-1.5 57.92 57.92 0 0 1 2.015-1.453c.219-.156.375-.313.469-.469.125-.156.234-.297.328-.422a1.3 1.3 0 0 1 .328-.375c.157-.125.39-.187.703-.187.407 0 .735.093.985.281.281.156.422.453.422.89 0 .188-.016.36-.047.516 0 .157-.078.297-.235.422-.03.094-.156.219-.375.375-.187.156-.39.328-.609.516a10.28 10.28 0 0 0-.61.468 2.06 2.06 0 0 1-.421.235c-.032 0-.125.047-.282.14-.124.063-.203.094-.234.094l-.14.14c-.032.032-.047.063-.047.095a49.44 49.44 0 0 1-2.157 1.547c-.75.5-1.547.968-2.39 1.406-.844.406-1.719.75-2.625 1.031a8.537 8.537 0 0 1-2.625.422c-.75 0-1.328-.188-1.735-.563a3.912 3.912 0 0 1-.843-1.5 7.366 7.366 0 0 1-.328-1.875 37.7 37.7 0 0 1-.047-1.78l.656-4.173Zm2.25-12.328c0-.562.11-.937.328-1.125.219-.187.61-.281 1.172-.281.281 0 .562.062.844.187.28.094.422.344.422.75 0 .407-.204.782-.61 1.125-.375.344-.75.516-1.125.516s-.64-.11-.797-.328a1.56 1.56 0 0 1-.234-.844ZM53.25 64.875a59.82 59.82 0 0 1-.422-1.313 8.29 8.29 0 0 1-.187-1.171 143.97 143.97 0 0 1-.094-1.078v-2.766a2.01 2.01 0 0 0 .047-.328c.343-1.532.718-3.047 1.125-4.547a41.615 41.615 0 0 1 1.547-4.313 24.104 24.104 0 0 1 2.156-3.937c.844-1.219 1.89-2.36 3.14-3.422.032-.156.079-.469.141-.938.063-.468.14-.953.234-1.453.094-.5.157-.968.188-1.406l.14-1.031a4.02 4.02 0 0 0-.046-.422v-.469h-.14a55.587 55.587 0 0 1-3.142 1.5c-1 .407-2.093.61-3.28.61-.657 0-1.22-.11-1.688-.328a3.003 3.003 0 0 1-1.078-.891 4.308 4.308 0 0 1-.657-1.313A8.637 8.637 0 0 1 51 34.22l1.125-3.422a30.3 30.3 0 0 1 1.031-2.485c.438-.906.922-1.765 1.453-2.578a12.969 12.969 0 0 1 1.922-2.203 6.117 6.117 0 0 1 2.438-1.453c1.218-.187 2.343-.156 3.375.094 1.062.25 1.984.61 2.765 1.078.782.469 1.407.984 1.875 1.547.5.531.797 1 .891 1.406a6.07 6.07 0 0 1-.422 1.5c-.219.5-.469 1.016-.75 1.547-.25.5-.516.969-.797 1.406a9.12 9.12 0 0 0-.562 1.032 14.98 14.98 0 0 0-.656 1.78c-.188.626-.36 1.266-.516 1.923a38.735 38.735 0 0 0-.328 2.015 19.336 19.336 0 0 0-.094 1.828v.703a22.299 22.299 0 0 1 5.156-2.203 19.734 19.734 0 0 1 5.485-.797h.843c.375 0 .72.047 1.032.141.343.063.64.203.89.422.25.188.375.469.375.844 0 .593-.328.89-.984.89-.094 0-.313-.015-.656-.047-.344-.062-.579-.124-.704-.187a73.233 73.233 0 0 0-2.859.516c-.625.125-1.203.25-1.734.375-.531.125-.906.203-1.125.234a7.99 7.99 0 0 0-.563.234c-.25.094-.531.203-.844.328l-.937.376c-.281.093-.469.187-.563.28a3.91 3.91 0 0 0-.89.376l-.938.468c-.312.188-.593.344-.843.47-.22.156-.328.25-.328.28l-.47.657-1.124 11.86c-.094.812-.328 1.796-.703 2.952a16.36 16.36 0 0 1-1.407 3.328 9.239 9.239 0 0 1-2.203 2.672c-.843.75-1.812 1.125-2.906 1.125-.313 0-.594-.047-.844-.14-.218-.063-.437-.235-.656-.516Zm1.594-4.594c.031.282.062.688.093 1.219.063.531.172.969.329 1.313.593-.157 1.14-.594 1.64-1.313.5-.688.922-1.469 1.266-2.344.344-.875.625-1.75.844-2.625.218-.843.359-1.5.422-1.968a27.05 27.05 0 0 0 .28-2.063c.094-.625.173-1.234.235-1.828a30.747 30.747 0 0 0 .188-3.516c0-.093-.016-.312-.047-.656v-.61a20.388 20.388 0 0 0-2.11 3.329 29.565 29.565 0 0 0-1.453 3.422 44.757 44.757 0 0 0-.984 3.656c-.25 1.281-.484 2.61-.703 3.984ZM53.719 35.11c.093.25.218.47.375.657.187.187.437.28.75.28 1.281 0 2.422-.265 3.422-.796a10.104 10.104 0 0 0 2.718-2.156A15.23 15.23 0 0 0 63 30.234a23.368 23.368 0 0 0 1.5-3.093v-.188c-.5-1.031-1.078-1.687-1.734-1.969-.625-.312-1.297-.359-2.016-.14-.688.187-1.39.593-2.11 1.218a16.074 16.074 0 0 0-2.062 2.063 18.307 18.307 0 0 0-1.687 2.39c-.5.844-.891 1.626-1.172 2.344-.282.688-.438 1.25-.469 1.688-.031.437.125.625.469.562Zm31.031-3.656a4.227 4.227 0 0 0-.328-.515c-.125-.25-.281-.375-.469-.375-.594 0-1.203.265-1.828.796-.594.5-1.172 1.11-1.734 1.828-.532.688-1 1.391-1.407 2.11-.375.719-.609 1.281-.703 1.687-.125.407-.187.891-.187 1.453 0 .563-.047 1.094-.14 1.594-.063.5-.235.922-.516 1.266-.25.344-.704.516-1.36.516-.406 0-.687-.079-.844-.235-.125-.187-.187-.484-.187-.89.219-1.5.406-2.735.562-3.704a143.5 143.5 0 0 0 .47-2.53c.155-.75.296-1.47.421-2.157a93.62 93.62 0 0 0 .516-2.578c.187-1 .39-2.219.609-3.657a596.2 596.2 0 0 0 .797-5.578c0-.468.031-1.125.094-1.968.062-.875.171-1.797.328-2.766.187-1 .422-2 .703-3a15.017 15.017 0 0 1 1.031-2.766c.438-.812.938-1.468 1.5-1.968.563-.532 1.219-.797 1.969-.797.531 0 .953.187 1.266.562.343.344.593.766.75 1.266.187.5.296 1.031.328 1.594.03.53.046.968.046 1.312 0 .781-.062 1.531-.187 2.25a28.55 28.55 0 0 1-.469 2.11 70.43 70.43 0 0 1-.61 2.109 25.235 25.235 0 0 0-.562 2.062l-3 5.72-1.687 3.655.234.516c.656-.781 1.328-1.375 2.016-1.781.687-.438 1.547-.688 2.578-.75.469-.032.86.11 1.172.422.344.312.625.718.844 1.218.218.47.375.953.468 1.453.125.5.204.907.235 1.22 0 .187-.016.484-.047.89a79.23 79.23 0 0 0-.094 1.406c-.031.531-.062 1.094-.094 1.688 0 .562.032 1.093.094 1.593.063.5.188.938.375 1.313.219.344.5.547.844.61a24.97 24.97 0 0 0 3.234-.61c.969-.281 1.813-.656 2.531-1.125a6.376 6.376 0 0 0 1.782-1.875c.5-.75.875-1.672 1.125-2.766.219-.312.531-.468.937-.468.469 0 .766.171.89.515.157.344.235.719.235 1.125 0 1.25-.406 2.36-1.219 3.328-.78.938-1.78 1.719-3 2.344a17.915 17.915 0 0 1-3.937 1.453c-1.406.313-2.703.469-3.89.469-.75 0-1.266-.25-1.547-.75-.282-.531-.454-1.156-.516-1.875-.031-.75-.031-1.5 0-2.25s.031-1.36 0-1.828a9.34 9.34 0 0 0-.047-.75 16.97 16.97 0 0 0-.14-1.172 13.42 13.42 0 0 0-.141-1.172 5.612 5.612 0 0 1-.094-.797Zm-3.844-11.25v1.079c.031.187.047.359.047.515v.281l.234.235c.313-.188.594-.516.844-.985a8.517 8.517 0 0 0 .75-1.687 20.03 20.03 0 0 0 .563-2.063 31.01 31.01 0 0 0 .75-4.172 9.72 9.72 0 0 0 .14-1.453c0-.125-.015-.36-.046-.703 0-.344-.016-.547-.047-.61l-.235-.468a6.22 6.22 0 0 0-1.734 2.11 10.616 10.616 0 0 0-.89 2.53 15.415 15.415 0 0 0-.329 2.72 80.512 80.512 0 0 0-.047 2.671Zm18.188 9.235c.062-.125.187-.313.375-.563.187-.281.281-.516.281-.703v-.14c0-.032-.031-.063-.094-.095-.062-.062-.11-.093-.14-.093h-.844a13.56 13.56 0 0 1-2.719.515 23.866 23.866 0 0 1-2.953.094c-.969-.031-1.797-.11-2.484-.234-.688-.157-1.094-.328-1.22-.516-.124-.187.11-.406.704-.656.594-.281 1.719-.563 3.375-.844.094 0 .313-.031.656-.094a8.02 8.02 0 0 1 1.078-.234c.375-.063.735-.125 1.079-.188.343-.093.562-.14.656-.14.125-.031.39-.047.797-.047l1.218-.094c.438-.031.844-.047 1.219-.047h.844l.234-.28 3.656-6.142c.126-.218.344-.39.657-.515.343-.125.609-.188.797-.188.406 0 .687.172.843.516.157.313.235.625.235.938 0 .03-.016.062-.047.093v.281l-2.063 5.015v.281c.063-.187.172-.28.328-.28h.422c.469 0 .922.155 1.36.468.437.312.656.734.656 1.265 0 .25-.078.454-.234.61a1.783 1.783 0 0 1-.563.375 4.64 4.64 0 0 1-.703.234 5.37 5.37 0 0 1-.656.047c-.375 0-.735-.047-1.078-.14a3.587 3.587 0 0 0-1.032-.141c-.343 0-.656.187-.937.562-.281.344-.547.813-.797 1.407a12.801 12.801 0 0 0-.562 1.922 61.067 61.067 0 0 0-.422 2.109 26.314 26.314 0 0 0-.282 1.922 28.027 28.027 0 0 0-.046 1.36v.75c.031.374.046.624.046.75.032.187.11.358.235.515.125.125.25.265.375.422h1.078c1.25 0 2.484-.282 3.703-.844a25.285 25.285 0 0 0 3.516-1.922c.062-.031.203-.172.421-.422.25-.281.516-.547.797-.797l.75-.75c.25-.218.422-.328.516-.328.219 0 .422.11.609.328.188.219.282.453.282.703 0 .594-.219 1.172-.657 1.735-.406.562-.937 1.093-1.593 1.593-.657.47-1.407.907-2.25 1.313a21.54 21.54 0 0 1-2.532 1.031c-.812.282-1.593.5-2.343.657-.719.156-1.313.234-1.782.234-.437 0-.89-.047-1.359-.14a4.222 4.222 0 0 1-1.266-.563 3.348 3.348 0 0 1-.937-.938c-.25-.375-.375-.843-.375-1.406v-5.203l1.172-4.36Zm34.125 8.906c0-.032.015-.14.047-.328l.093-.563c.032-.219.063-.406.094-.562.031-.188.047-.313.047-.375v-.47l.656-2.953a62.563 62.563 0 0 1 1.641-3.235 13.966 13.966 0 0 1 2.015-2.718 8.956 8.956 0 0 1 2.579-1.875c1-.47 2.203-.703 3.609-.703.281 0 .625.093 1.031.28.438.157.86.36 1.266.61.437.25.828.516 1.172.797.375.25.656.484.843.703.969-.156 1.672-.234 2.11-.234a16.08 16.08 0 0 1 1.125-.047c.312-.031.641-.094.984-.188.375-.093.938-.297 1.688-.609a5.472 5.472 0 0 1 1.547-.234c.218 0 .422.093.609.28.219.188.328.407.328.657 0 .313-.109.594-.328.844a1.4 1.4 0 0 1-.797.469l-5.859 1.312-.516.235a11.744 11.744 0 0 1-1.125 4.828 13.711 13.711 0 0 1-2.859 4.03 13.87 13.87 0 0 1-4.125 2.767 12.47 12.47 0 0 1-4.875.984c-.125 0-.328-.016-.61-.047h-.562c-.688-.281-1.172-.797-1.453-1.547-.25-.75-.375-1.453-.375-2.11Zm3 .937c.031.157.156.235.375.235h.468c1.126 0 2.282-.282 3.469-.844a12.782 12.782 0 0 0 3.188-2.25 11.921 11.921 0 0 0 2.343-3.14c.626-1.188.938-2.376.938-3.563-1 0-2-.078-3-.235-1-.187-1.969-.28-2.906-.28h-.047l-3.891 4.124c-.218.219-.39.516-.515.89a7.01 7.01 0 0 0-.282 1.22 18.846 18.846 0 0 0-.187 2.484v.656c0 .344.016.578.047.703Zm18.328 17.813v-1.829l1.641-14.672a62.25 62.25 0 0 1 .562-2.719c.156-.688.281-1.203.375-1.547.125-.375.25-.625.375-.75l3.422-10.969c.125-.375.359-.906.703-1.593.344-.72.734-1.422 1.172-2.11a9.246 9.246 0 0 1 1.5-1.734c.531-.5 1.062-.75 1.594-.75.218 0 .406.078.562.234.156.157.281.344.375.563.125.218.203.453.234.703.063.25.094.453.094.61 0 1.437-.203 2.905-.609 4.405a29.853 29.853 0 0 1-1.5 4.454 26.399 26.399 0 0 1-2.25 4.125 24.479 24.479 0 0 1-2.766 3.468l-.703 2.532a34.505 34.505 0 0 0 10.266-1.735 63.576 63.576 0 0 0 9.609-4.031h.235c.281 0 .468.11.562.328.125.188.188.39.188.61 0 .25-.047.468-.141.656-.094.187-.297.36-.609.515a39.211 39.211 0 0 1-7.922 3.75 55.237 55.237 0 0 1-8.532 2.203c.563.626 1.032 1.141 1.407 1.547.375.407.671.813.89 1.22.25.437.422.937.516 1.5.125.562.187 1.327.187 2.296 0 2.438-.578 4.563-1.734 6.375-1.125 1.844-2.609 3.547-4.453 5.11-.438.343-.985.703-1.641 1.078-.625.374-1.234.562-1.828.562-.531 0-.922-.172-1.172-.516a3.053 3.053 0 0 1-.515-1.218 5.164 5.164 0 0 1-.094-1.407v-1.265Zm3.844-13.266-.422 3.281a122.333 122.333 0 0 0-.422 3.75 155.586 155.586 0 0 0-.328 3.844 49.482 49.482 0 0 0-.141 3.61c.844 0 1.656-.376 2.438-1.126.812-.718 1.531-1.609 2.156-2.671a18.767 18.767 0 0 0 1.547-3.188c.406-1.094.625-2 .656-2.719.063-.875 0-1.625-.187-2.25a3.852 3.852 0 0 0-.797-1.547c-.375-.406-.86-.75-1.453-1.03a21.114 21.114 0 0 0-2.11-.844h-.234a.485.485 0 0 0-.469.28 3.478 3.478 0 0 0-.234.61Zm5.765-20.11c-.031 0-.094.126-.187.376a8.493 8.493 0 0 1-.375.75c-.125.281-.25.578-.375.89a8.88 8.88 0 0 1-.235.703c-.093.25-.203.579-.328.985-.125.375-.25.765-.375 1.172-.093.375-.187.718-.281 1.031-.094.281-.141.438-.141.469v.281a36.52 36.52 0 0 0 1.641-3.328c.5-1.188.781-2.375.844-3.563l-.188.235Zm42.891 5.25c0-.03.015-.124.047-.28a9.81 9.81 0 0 0 .187-.516c.094-.188.172-.375.235-.563.062-.187.109-.343.14-.468v-.188a29.497 29.497 0 0 1-1.64-.187 10.05 10.05 0 0 1-1.969-.47 6.433 6.433 0 0 1-1.641-.937c-.468-.375-.703-.89-.703-1.547 0-.625.219-1.125.656-1.5a4.49 4.49 0 0 1 1.594-.937 8.332 8.332 0 0 1 1.922-.516c.656-.093 1.203-.14 1.641-.14.593 0 1.093.015 1.5.047.406 0 .922.062 1.546.187v-.656l6.985-13.547-6.422 1.406h-1.406c-.344 0-.797-.015-1.36-.047a9.431 9.431 0 0 1-1.64-.234c-.531-.156-1-.375-1.407-.656-.374-.282-.562-.703-.562-1.266 0-.719.094-1.36.281-1.922.219-.593.735-.89 1.547-.89.344 0 .578.125.703.375.157.25.25.53.281.843.063.313.141.625.235.938a.987.987 0 0 0 .562.61h.375c.188 0 .375.015.563.046h1.031c.656 0 1.25-.031 1.781-.094.563-.062 1.094-.14 1.594-.234a12.671 12.671 0 0 0 1.547-.469 77.611 77.611 0 0 0 1.781-.656 4.28 4.28 0 0 0 1.219-.75c.406-.375.797-.734 1.172-1.078a7.915 7.915 0 0 1 1.219-.938c.406-.28.828-.421 1.265-.421.594 0 .891.328.891.984 0 .25-.016.469-.047.656a2.386 2.386 0 0 1-.234.656l-9.375 17.344v.703c1.718.594 3.25 1.422 4.593 2.485h.282l7.687-1.125.469-.188c.094-.281.25-.719.469-1.312.25-.594.515-1.22.797-1.875.281-.688.546-1.328.796-1.922.25-.625.407-1.063.469-1.313.063-.062.141-.218.235-.468.093-.25.171-.407.234-.47l4.078-10.5c.125-.218.328-.421.609-.609.313-.187.579-.28.797-.28.406 0 .656.187.75.562.125.343.188.656.188.937v.328l-4.828 12.328c-.125.25-.282.578-.469.985l-.469 1.125c-.156.375-.297.734-.422 1.078-.094.344-.172.578-.234.703.094 0 .234-.016.422-.047.187-.062.39-.11.609-.14.219-.032.422-.079.609-.141.219-.063.344-.11.376-.14.218-.063.578-.188 1.078-.376.5-.187 1.031-.39 1.593-.61.563-.25 1.094-.468 1.594-.655.5-.188.844-.328 1.031-.422a2.19 2.19 0 0 1 .657-.657 1.81 1.81 0 0 1 .937-.28c.188 0 .344.062.469.187a.625.625 0 0 1 .234.515c0 .344-.125.657-.375.938-.25.281-.547.562-.89.844-.344.25-.704.453-1.078.609-.376.156-.657.281-.844.375l-7.266 2.531-4.406 12.094c-.063.313-.156.75-.281 1.313a7.69 7.69 0 0 1-.469 1.593 4.394 4.394 0 0 1-.75 1.36c-.313.375-.688.562-1.125.562-.469 0-.828-.312-1.078-.937-.25-.625-.438-1.407-.563-2.344a207 207 0 0 1-.281-3.188 30.964 30.964 0 0 0-.375-3.422c-.156-1.125-.406-2.125-.75-3s-.828-1.53-1.453-1.968a7.47 7.47 0 0 1-.422-.047 7.363 7.363 0 0 0-.422-.047c-.125 0-.312.016-.562.047a5.352 5.352 0 0 1-.375.047c-.313.031-.719.078-1.219.14-.5.032-.985.078-1.453.141a61.1 61.1 0 0 0-1.172.094l-.516.047-.187.234-4.828 10.266c-.125.843-.407 1.562-.844 2.156a13.732 13.732 0 0 0-1.219 2.016c-.094 0-.297.03-.609.093a3.64 3.64 0 0 1-.516.094c-.031 0-.141-.031-.328-.094a1.08 1.08 0 0 0-.375-.093l-.281-.141c-.125-.063-.188-.11-.188-.14v-1.126l5.766-11.437Zm12.562-2.624c0 .312.11.812.329 1.5.218.656.468 1.39.75 2.203.312.812.593 1.61.843 2.39.281.75.469 1.344.563 1.782.031-.125.094-.36.187-.703l.375-1.125c.125-.407.235-.766.328-1.078a7.54 7.54 0 0 1 .235-.75c.031-.032.078-.11.14-.235a1.11 1.11 0 0 1 .141-.234c.094-.313.234-.703.422-1.172.187-.469.359-.938.516-1.406.187-.47.343-.875.468-1.22l.188-.515v-.468h-.235a.523.523 0 0 0-.234.046c-.187 0-.531.047-1.031.141-.469.094-.969.188-1.5.281-.532.094-1.047.188-1.547.282-.469.093-.781.14-.938.14v.14Zm-14.625-2.625c.438.343.969.578 1.594.703a9.812 9.812 0 0 0 1.828.187c.25 0 .453-.14.61-.422.156-.312.234-.578.234-.796v-.141c-.062 0-.281-.031-.656-.094-.375-.093-.594-.14-.656-.14a8.88 8.88 0 0 0-.469.047c-.281 0-.61.03-.985.093-.343.063-.672.14-.984.235-.312.093-.484.203-.516.328Zm7.36.187c-.406 0-.61.235-.61.703h1.875l.235-.187a3.044 3.044 0 0 0-.703-.375 2.251 2.251 0 0 0-.797-.14Zm23.812 14.438c0-.032.016-.14.047-.328l.094-.563a9.45 9.45 0 0 1 .094-.562c.031-.188.047-.313.047-.375v-.47l.656-2.953a62.562 62.562 0 0 1 1.64-3.235 13.97 13.97 0 0 1 2.016-2.718 8.951 8.951 0 0 1 2.578-1.875c1-.47 2.203-.703 3.61-.703.281 0 .624.093 1.031.28.437.157.859.36 1.265.61.438.25.828.516 1.172.797.375.25.656.484.844.703.969-.156 1.672-.234 2.109-.234.438-.032.813-.047 1.125-.047.313-.031.641-.094.985-.188.375-.093.937-.297 1.687-.609a5.478 5.478 0 0 1 1.547-.234c.219 0 .422.093.609.28.219.188.329.407.329.657 0 .313-.11.594-.329.844-.218.25-.484.406-.796.469l-5.86 1.312-.515.235a11.775 11.775 0 0 1-1.125 4.828 13.696 13.696 0 0 1-2.86 4.03 13.844 13.844 0 0 1-4.125 2.767 12.463 12.463 0 0 1-4.875.984 6.26 6.26 0 0 1-.609-.047h-.563c-.687-.281-1.172-.797-1.453-1.547-.25-.75-.375-1.453-.375-2.11Zm3 .937c.032.157.156.235.375.235H240c1.125 0 2.281-.282 3.469-.844a12.777 12.777 0 0 0 3.187-2.25 11.947 11.947 0 0 0 2.344-3.14c.625-1.188.938-2.376.938-3.563-1 0-2-.078-3-.235-1-.187-1.969-.28-2.907-.28h-.047l-3.89 4.124c-.219.219-.391.516-.516.89a6.92 6.92 0 0 0-.281 1.22 18.85 18.85 0 0 0-.188 2.484v.656c0 .344.016.578.047.703Zm17.485 12.703c0-.906.109-1.922.328-3.047.219-1.093.453-2.203.703-3.328.25-1.093.484-2.172.703-3.234.219-1.063.328-2.063.328-3V39l1.125-3.14a39.19 39.19 0 0 1 1.406-2.813 18.06 18.06 0 0 1 1.782-2.672 9.956 9.956 0 0 1 2.343-2.11 6.934 6.934 0 0 1 2.953-1.124c.376-.063.782.015 1.219.234.438.188.844.438 1.219.75.406.313.734.672.984 1.078s.407.797.469 1.172v2.016c0 .875-.125 1.718-.375 2.53a7.96 7.96 0 0 0-.375 2.345v.14a6.07 6.07 0 0 1 .656-.328 61.9 61.9 0 0 1 1.172-.516c.469-.187.969-.39 1.5-.609.563-.219 1.094-.422 1.594-.61.5-.187.937-.327 1.313-.421.406-.125.687-.188.843-.188.375 0 .594.063.657.188.093.094.14.266.14.516 0 .343-.203.687-.609 1.03-.407.344-.938.673-1.594.985-.625.313-1.328.61-2.109.89-.75.25-1.485.485-2.204.704-.687.219-1.296.437-1.828.656-.531.188-.89.328-1.078.422-.344.25-.672.516-.984.797a6.627 6.627 0 0 1-.891.75c-.312.219-.64.406-.984.562a2.806 2.806 0 0 1-1.172.235 3.943 3.943 0 0 1-1.922-.516 24.814 24.814 0 0 1-1.641-1.125l-.234.188c0 .03-.109.453-.328 1.265a94.2 94.2 0 0 1-.703 2.813 98.465 98.465 0 0 1-.797 3.234c-.25 1.063-.453 1.89-.609 2.484-.063.344-.11.688-.141 1.032a3.55 3.55 0 0 1-.234 1.031 1.681 1.681 0 0 1-.516.844c-.25.218-.594.328-1.031.328h-.61a4.215 4.215 0 0 1-.375-1.031 4.874 4.874 0 0 1-.093-1.032Zm6.281-13.828c.344.219.703.344 1.078.375.375.032.734.032 1.078 0 .375-.062.734-.14 1.078-.234.375-.094.735-.14 1.078-.14h.422a5.19 5.19 0 0 1 .375-.048c.375-.187.672-.53.891-1.03.219-.5.375-1.032.469-1.595.125-.562.203-1.109.234-1.64.031-.563.047-1 .047-1.313 0-.281-.016-.578-.047-.89a2.4 2.4 0 0 0-.234-.844 1.773 1.773 0 0 0-.422-.703c-.188-.188-.453-.282-.797-.282a1.96 1.96 0 0 0-.328.047h-.282c-.124.375-.39.891-.796 1.547a90.15 90.15 0 0 1-1.219 1.969 46.08 46.08 0 0 0-1.125 2.016c-.344.625-.516 1.109-.516 1.453l-.984 1.312Zm15.516-3.468c.062-.188.156-.516.281-.985.156-.5.297-1.031.422-1.594.156-.562.281-1.093.375-1.593.125-.532.218-.891.281-1.078.187-.75.406-1.563.656-2.438a10.81 10.81 0 0 1 1.125-2.438 5.865 5.865 0 0 1 1.781-1.828c.75-.5 1.672-.75 2.766-.75.406 0 .687.157.844.47.187.28.343.593.469.937v.703c.031.312.046.531.046.656 0 1.344-.14 2.531-.422 3.563a9.31 9.31 0 0 1-1.218 2.859 13.261 13.261 0 0 1-1.969 2.484 56.18 56.18 0 0 1-2.672 2.39 14.3 14.3 0 0 0-.141.47 2 2 0 0 0-.093.468v.094c0 .563.093 1.016.281 1.36.188.343.438.624.75.843.344.188.719.313 1.125.375.437.032.906.047 1.406.047 1.469 0 2.875-.203 4.219-.61a10.875 10.875 0 0 0 3.703-1.968c.156-.156.344-.375.563-.656l.75-.938c.25-.312.515-.578.796-.797.282-.25.579-.375.891-.375.313 0 .5.125.563.375.062.25.093.5.093.75 0 .688-.218 1.344-.656 1.97-.406.593-.953 1.14-1.641 1.64-.656.468-1.421.89-2.296 1.265-.844.375-1.688.688-2.532.938a19.34 19.34 0 0 1-2.437.562c-.75.125-1.391.188-1.922.188-1.656 0-3.047-.266-4.172-.797-1.094-.563-1.844-1.672-2.25-3.328l.235-3.234Zm6.703-9.235c-.625.563-1.125 1.078-1.5 1.547a6.46 6.46 0 0 0-.844 1.406 15 15 0 0 0-.516 1.547c-.125.563-.265 1.219-.422 1.969.594-.469 1.079-.938 1.453-1.406a7.02 7.02 0 0 0 .985-1.453 6.9 6.9 0 0 0 .562-1.594c.125-.594.219-1.266.282-2.016Z"/>
</svg>

